<?xml version="1.0" encoding="UTF-8"?>
<mxfile host="app.diagrams.net" modified="2025-07-26T10:00:00.000Z" agent="5.0" etag="v1.0" version="24.7.6">
  <diagram name="AWS Network Architecture" id="aws-network">
    <mxGraphModel dx="1422" dy="794" grid="1" gridSize="10" guides="1" tooltips="1" connect="1" arrows="1" fold="1" page="1" pageScale="1" pageWidth="1654" pageHeight="1169" math="0" shadow="0">
      <root>
        <mxCell id="0"/>
        <mxCell id="1" parent="0"/>
        
        <mxCell id="title" value="Vehicle Tracking - AWS Network Architecture" style="text;html=1;strokeColor=none;fillColor=none;align=center;verticalAlign=middle;whiteSpace=wrap;rounded=0;fontSize=18;fontStyle=1;" vertex="1" parent="1">
          <mxGeometry x="500" y="20" width="500" height="30" as="geometry"/>
        </mxCell>
        
        <mxCell id="internet" value="Internet" style="outlineConnect=0;dashed=0;verticalLabelPosition=bottom;verticalAlign=top;align=center;html=1;shape=mxgraph.aws4.internet_alt2;fillColor=#232F3E;gradientColor=none;" vertex="1" parent="1">
          <mxGeometry x="80" y="80" width="78" height="78" as="geometry"/>
        </mxCell>
        
        <mxCell id="cloudfront" value="CloudFront" style="outlineConnect=0;dashed=0;verticalLabelPosition=bottom;verticalAlign=top;align=center;html=1;shape=mxgraph.aws4.cloudfront;fillColor=#F58534;gradientColor=none;" vertex="1" parent="1">
          <mxGeometry x="220" y="80" width="78" height="78" as="geometry"/>
        </mxCell>
        
        <mxCell id="waf" value="AWS WAF" style="outlineConnect=0;dashed=0;verticalLabelPosition=bottom;verticalAlign=top;align=center;html=1;shape=mxgraph.aws4.waf;fillColor=#F58534;gradientColor=none;" vertex="1" parent="1">
          <mxGeometry x="220" y="180" width="78" height="78" as="geometry"/>
        </mxCell>
        
        <mxCell id="vpc" value="VPC" style="points=[[0,0],[0.25,0],[0.5,0],[0.75,0],[1,0],[1,0.25],[1,0.5],[1,0.75],[1,1],[0.75,1],[0.5,1],[0.25,1],[0,1],[0,0.75],[0,0.5],[0,0.25]];outlineConnect=0;gradientColor=none;html=1;whiteSpace=wrap;fontSize=12;fontStyle=0;container=1;pointerEvents=0;collapsible=0;recursiveResize=0;shape=mxgraph.aws4.group;grIcon=mxgraph.aws4.group_vpc;strokeColor=#248814;fillColor=none;verticalAlign=top;align=left;spacingLeft=30;fontColor=#248814;dashed=0;" vertex="1" parent="1">
          <mxGeometry x="400" y="60" width="1000" height="700" as="geometry"/>
        </mxCell>
        
        <mxCell id="igw" value="Internet Gateway" style="outlineConnect=0;dashed=0;verticalLabelPosition=bottom;verticalAlign=top;align=center;html=1;shape=mxgraph.aws4.internet_gateway;fillColor=#F58534;gradientColor=none;" vertex="1" parent="1">
          <mxGeometry x="600" y="100" width="78" height="78" as="geometry"/>
        </mxCell>
        
        <mxCell id="public-subnet-a" value="Public Subnet AZ-A" style="points=[[0,0],[0.25,0],[0.5,0],[0.75,0],[1,0],[1,0.25],[1,0.5],[1,0.75],[1,1],[0.75,1],[0.5,1],[0.25,1],[0,1],[0,0.75],[0,0.5],[0,0.25]];outlineConnect=0;gradientColor=none;html=1;whiteSpace=wrap;fontSize=12;fontStyle=0;container=1;pointerEvents=0;collapsible=0;recursiveResize=0;shape=mxgraph.aws4.group;grIcon=mxgraph.aws4.group_security_group;strokeColor=#248814;fillColor=#E9F3E6;verticalAlign=top;align=left;spacingLeft=30;fontColor=#248814;dashed=0;" vertex="1" parent="1">
          <mxGeometry x="450" y="200" width="200" height="120" as="geometry"/>
        </mxCell>
        
        <mxCell id="public-subnet-b" value="Public Subnet AZ-B" style="points=[[0,0],[0.25,0],[0.5,0],[0.75,0],[1,0],[1,0.25],[1,0.5],[1,0.75],[1,1],[0.75,1],[0.5,1],[0.25,1],[0,1],[0,0.75],[0,0.5],[0,0.25]];outlineConnect=0;gradientColor=none;html=1;whiteSpace=wrap;fontSize=12;fontStyle=0;container=1;pointerEvents=0;collapsible=0;recursiveResize=0;shape=mxgraph.aws4.group;grIcon=mxgraph.aws4.group_security_group;strokeColor=#248814;fillColor=#E9F3E6;verticalAlign=top;align=left;spacingLeft=30;fontColor=#248814;dashed=0;" vertex="1" parent="1">
          <mxGeometry x="680" y="200" width="200" height="120" as="geometry"/>
        </mxCell>
        
        <mxCell id="nat-a" value="NAT Gateway" style="outlineConnect=0;dashed=0;verticalLabelPosition=bottom;verticalAlign=top;align=center;html=1;shape=mxgraph.aws4.nat_gateway;fillColor=#F58534;gradientColor=none;" vertex="1" parent="1">
          <mxGeometry x="470" y="240" width="78" height="78" as="geometry"/>
        </mxCell>
        
        <mxCell id="nat-b" value="NAT Gateway" style="outlineConnect=0;dashed=0;verticalLabelPosition=bottom;verticalAlign=top;align=center;html=1;shape=mxgraph.aws4.nat_gateway;fillColor=#F58534;gradientColor=none;" vertex="1" parent="1">
          <mxGeometry x="700" y="240" width="78" height="78" as="geometry"/>
        </mxCell>
        
        <mxCell id="alb" value="Application Load Balancer" style="outlineConnect=0;dashed=0;verticalLabelPosition=bottom;verticalAlign=top;align=center;html=1;shape=mxgraph.aws4.application_load_balancer;fillColor=#F58534;gradientColor=none;" vertex="1" parent="1">
          <mxGeometry x="600" y="280" width="78" height="78" as="geometry"/>
        </mxCell>
        
        <mxCell id="private-subnet-a" value="Private Subnet AZ-A" style="points=[[0,0],[0.25,0],[0.5,0],[0.75,0],[1,0],[1,0.25],[1,0.5],[1,0.75],[1,1],[0.75,1],[0.5,1],[0.25,1],[0,1],[0,0.75],[0,0.5],[0,0.25]];outlineConnect=0;gradientColor=none;html=1;whiteSpace=wrap;fontSize=12;fontStyle=0;container=1;pointerEvents=0;collapsible=0;recursiveResize=0;shape=mxgraph.aws4.group;grIcon=mxgraph.aws4.group_security_group;strokeColor=#147EBA;fillColor=#E6F2F8;verticalAlign=top;align=left;spacingLeft=30;fontColor=#147EBA;dashed=0;" vertex="1" parent="1">
          <mxGeometry x="450" y="380" width="200" height="120" as="geometry"/>
        </mxCell>
        
        <mxCell id="private-subnet-b" value="Private Subnet AZ-B" style="points=[[0,0],[0.25,0],[0.5,0],[0.75,0],[1,0],[1,0.25],[1,0.5],[1,0.75],[1,1],[0.75,1],[0.5,1],[0.25,1],[0,1],[0,0.75],[0,0.5],[0,0.25]];outlineConnect=0;gradientColor=none;html=1;whiteSpace=wrap;fontSize=12;fontStyle=0;container=1;pointerEvents=0;collapsible=0;recursiveResize=0;shape=mxgraph.aws4.group;grIcon=mxgraph.aws4.group_security_group;strokeColor=#147EBA;fillColor=#E6F2F8;verticalAlign=top;align=left;spacingLeft=30;fontColor=#147EBA;dashed=0;" vertex="1" parent="1">
          <mxGeometry x="680" y="380" width="200" height="120" as="geometry"/>
        </mxCell>
        
        <mxCell id="lambda-a" value="Lambda" style="outlineConnect=0;dashed=0;verticalLabelPosition=bottom;verticalAlign=top;align=center;html=1;shape=mxgraph.aws4.lambda_function;fillColor=#F58534;gradientColor=none;" vertex="1" parent="1">
          <mxGeometry x="470" y="420" width="50" height="50" as="geometry"/>
        </mxCell>
        
        <mxCell id="lambda-b" value="Lambda" style="outlineConnect=0;dashed=0;verticalLabelPosition=bottom;verticalAlign=top;align=center;html=1;shape=mxgraph.aws4.lambda_function;fillColor=#F58534;gradientColor=none;" vertex="1" parent="1">
          <mxGeometry x="530" y="420" width="50" height="50" as="geometry"/>
        </mxCell>
        
        <mxCell id="lambda-c" value="Lambda" style="outlineConnect=0;dashed=0;verticalLabelPosition=bottom;verticalAlign=top;align=center;html=1;shape=mxgraph.aws4.lambda_function;fillColor=#F58534;gradientColor=none;" vertex="1" parent="1">
          <mxGeometry x="700" y="420" width="50" height="50" as="geometry"/>
        </mxCell>
        
        <mxCell id="lambda-d" value="Lambda" style="outlineConnect=0;dashed=0;verticalLabelPosition=bottom;verticalAlign=top;align=center;html=1;shape=mxgraph.aws4.lambda_function;fillColor=#F58534;gradientColor=none;" vertex="1" parent="1">
          <mxGeometry x="760" y="420" width="50" height="50" as="geometry"/>
        </mxCell>
        
        <mxCell id="db-subnet-a" value="Database Subnet AZ-A" style="points=[[0,0],[0.25,0],[0.5,0],[0.75,0],[1,0],[1,0.25],[1,0.5],[1,0.75],[1,1],[0.75,1],[0.5,1],[0.25,1],[0,1],[0,0.75],[0,0.5],[0,0.25]];outlineConnect=0;gradientColor=none;html=1;whiteSpace=wrap;fontSize=12;fontStyle=0;container=1;pointerEvents=0;collapsible=0;recursiveResize=0;shape=mxgraph.aws4.group;grIcon=mxgraph.aws4.group_security_group;strokeColor=#7AA116;fillColor=#F2F6E8;verticalAlign=top;align=left;spacingLeft=30;fontColor=#7AA116;dashed=0;" vertex="1" parent="1">
          <mxGeometry x="450" y="520" width="200" height="100" as="geometry"/>
        </mxCell>
        
        <mxCell id="db-subnet-b" value="Database Subnet AZ-B" style="points=[[0,0],[0.25,0],[0.5,0],[0.75,0],[1,0],[1,0.25],[1,0.5],[1,0.75],[1,1],[0.75,1],[0.5,1],[0.25,1],[0,1],[0,0.75],[0,0.5],[0,0.25]];outlineConnect=0;gradientColor=none;html=1;whiteSpace=wrap;fontSize=12;fontStyle=0;container=1;pointerEvents=0;collapsible=0;recursiveResize=0;shape=mxgraph.aws4.group;grIcon=mxgraph.aws4.group_security_group;strokeColor=#7AA116;fillColor=#F2F6E8;verticalAlign=top;align=left;spacingLeft=30;fontColor=#7AA116;dashed=0;" vertex="1" parent="1">
          <mxGeometry x="680" y="520" width="200" height="100" as="geometry"/>
        </mxCell>
        
        <mxCell id="redis-a" value="ElastiCache" style="outlineConnect=0;dashed=0;verticalLabelPosition=bottom;verticalAlign=top;align=center;html=1;shape=mxgraph.aws4.elasticache_for_redis;fillColor=#C925D1;gradientColor=none;" vertex="1" parent="1">
          <mxGeometry x="470" y="550" width="78" height="78" as="geometry"/>
        </mxCell>
        
        <mxCell id="redis-b" value="ElastiCache" style="outlineConnect=0;dashed=0;verticalLabelPosition=bottom;verticalAlign=top;align=center;html=1;shape=mxgraph.aws4.elasticache_for_redis;fillColor=#C925D1;gradientColor=none;" vertex="1" parent="1">
          <mxGeometry x="700" y="550" width="78" height="78" as="geometry"/>
        </mxCell>
        
        <mxCell id="managed-services" value="AWS Managed Services" style="points=[[0,0],[0.25,0],[0.5,0],[0.75,0],[1,0],[1,0.25],[1,0.5],[1,0.75],[1,1],[0.75,1],[0.5,1],[0.25,1],[0,1],[0,0.75],[0,0.5],[0,0.25]];outlineConnect=0;gradientColor=none;html=1;whiteSpace=wrap;fontSize=12;fontStyle=0;container=1;pointerEvents=0;collapsible=0;recursiveResize=0;shape=mxgraph.aws4.group;grIcon=mxgraph.aws4.group_aws_cloud_alt;strokeColor=#232F3E;fillColor=none;verticalAlign=top;align=left;spacingLeft=30;fontColor=#232F3E;dashed=0;" vertex="1" parent="1">
          <mxGeometry x="920" y="100" width="450" height="500" as="geometry"/>
        </mxCell>
        
        <mxCell id="dynamodb" value="DynamoDB" style="outlineConnect=0;dashed=0;verticalLabelPosition=bottom;verticalAlign=top;align=center;html=1;shape=mxgraph.aws4.dynamodb;fillColor=#C925D1;gradientColor=none;" vertex="1" parent="1">
          <mxGeometry x="950" y="140" width="78" height="78" as="geometry"/>
        </mxCell>
        
        <mxCell id="s3" value="S3" style="outlineConnect=0;dashed=0;verticalLabelPosition=bottom;verticalAlign=top;align=center;html=1;shape=mxgraph.aws4.s3;fillColor=#7AA116;gradientColor=none;" vertex="1" parent="1">
          <mxGeometry x="1070" y="140" width="78" height="78" as="geometry"/>
        </mxCell>
        
        <mxCell id="api-gateway" value="API Gateway" style="outlineConnect=0;dashed=0;verticalLabelPosition=bottom;verticalAlign=top;align=center;html=1;shape=mxgraph.aws4.api_gateway;fillColor=#F58534;gradientColor=none;" vertex="1" parent="1">
          <mxGeometry x="1190" y="140" width="78" height="78" as="geometry"/>
        </mxCell>
        
        <mxCell id="cognito" value="Cognito" style="outlineConnect=0;dashed=0;verticalLabelPosition=bottom;verticalAlign=top;align=center;html=1;shape=mxgraph.aws4.cognito;fillColor=#F58534;gradientColor=none;" vertex="1" parent="1">
          <mxGeometry x="950" y="240" width="78" height="78" as="geometry"/>
        </mxCell>
        
        <mxCell id="iot-core" value="IoT Core" style="outlineConnect=0;dashed=0;verticalLabelPosition=bottom;verticalAlign=top;align=center;html=1;shape=mxgraph.aws4.iot_core;fillColor=#7AA116;gradientColor=none;" vertex="1" parent="1">
          <mxGeometry x="1070" y="240" width="78" height="78" as="geometry"/>
        </mxCell>
        
        <mxCell id="kinesis" value="Kinesis" style="outlineConnect=0;dashed=0;verticalLabelPosition=bottom;verticalAlign=top;align=center;html=1;shape=mxgraph.aws4.kinesis_data_streams;fillColor=#8C4FFF;gradientColor=none;" vertex="1" parent="1">
          <mxGeometry x="1190" y="240" width="78" height="78" as="geometry"/>
        </mxCell>
        
        <mxCell id="sns" value="SNS" style="outlineConnect=0;dashed=0;verticalLabelPosition=bottom;verticalAlign=top;align=center;html=1;shape=mxgraph.aws4.sns;fillColor=#F58534;gradientColor=none;" vertex="1" parent="1">
          <mxGeometry x="950" y="340" width="78" height="78" as="geometry"/>
        </mxCell>
        
        <mxCell id="cloudwatch" value="CloudWatch" style="outlineConnect=0;dashed=0;verticalLabelPosition=bottom;verticalAlign=top;align=center;html=1;shape=mxgraph.aws4.cloudwatch_2;fillColor=#F58534;gradientColor=none;" vertex="1" parent="1">
          <mxGeometry x="1070" y="340" width="78" height="78" as="geometry"/>
        </mxCell>
        
        <mxCell id="rekognition" value="Rekognition" style="outlineConnect=0;dashed=0;verticalLabelPosition=bottom;verticalAlign=top;align=center;html=1;shape=mxgraph.aws4.rekognition;fillColor=#01A88D;gradientColor=none;" vertex="1" parent="1">
          <mxGeometry x="1190" y="340" width="78" height="78" as="geometry"/>
        </mxCell>
        
        <mxCell id="security-info" value="Security &amp; Compliance" style="rounded=1;whiteSpace=wrap;html=1;fillColor=#FFEBEE;strokeColor=#F44336;verticalAlign=top;fontSize=12;fontStyle=1;" vertex="1" parent="1">
          <mxGeometry x="50" y="200" width="150" height="200" as="geometry"/>
        </mxCell>
        
        <mxCell id="security-text" value="🔒 Security Groups&#xa;• Web: 80, 443&#xa;• App: 8080&#xa;• DB: 6379&#xa;• Lambda: Outbound&#xa;&#xa;🛡️ Compliance&#xa;• SOC 2 Type II&#xa;• GDPR Ready&#xa;• ISO 27001&#xa;• PCI DSS&#xa;&#xa;🔐 IAM Roles&#xa;• Least Privilege&#xa;• Service-specific&#xa;• Automated rotation" style="text;html=1;strokeColor=none;fillColor=none;align=left;verticalAlign=top;whiteSpace=wrap;rounded=0;fontSize=10;" vertex="1" parent="1">
          <mxGeometry x="60" y="230" width="130" height="160" as="geometry"/>
        </mxCell>
        
        <mxCell id="performance-info" value="Performance Metrics" style="rounded=1;whiteSpace=wrap;html=1;fillColor=#E8F5E8;strokeColor=#4CAF50;verticalAlign=top;fontSize=12;fontStyle=1;" vertex="1" parent="1">
          <mxGeometry x="50" y="420" width="150" height="150" as="geometry"/>
        </mxCell>
        
        <mxCell id="performance-text" value="⚡ Network&#xa;• Latency: &lt;50ms&#xa;• Bandwidth: 10 Gbps&#xa;• Availability: 99.99%&#xa;&#xa;📊 API Performance&#xa;• Response: &lt;200ms&#xa;• Throughput: 1K+ RPS&#xa;• Auto-scaling: Yes&#xa;&#xa;💰 Cost Efficiency&#xa;• $0.10/hour&#xa;• 90% savings&#xa;• Pay-per-use" style="text;html=1;strokeColor=none;fillColor=none;align=left;verticalAlign=top;whiteSpace=wrap;rounded=0;fontSize=10;" vertex="1" parent="1">
          <mxGeometry x="60" y="450" width="130" height="110" as="geometry"/>
        </mxCell>
        
        <mxCell id="data-flow-info" value="Data Flow Summary" style="rounded=1;whiteSpace=wrap;html=1;fillColor=#E3F2FD;strokeColor=#2196F3;verticalAlign=top;fontSize=12;fontStyle=1;" vertex="1" parent="1">
          <mxGeometry x="50" y="590" width="150" height="120" as="geometry"/>
        </mxCell>
        
        <mxCell id="data-flow-text" value="📈 Volume&#xa;• IoT: 201K records/day&#xa;• Video: 2TB/month&#xa;• Sales: 1K trans/month&#xa;&#xa;🔄 Processing&#xa;• Real-time alerts&#xa;• Hot/Warm/Cold storage&#xa;• AI analysis ready" style="text;html=1;strokeColor=none;fillColor=none;align=left;verticalAlign=top;whiteSpace=wrap;rounded=0;fontSize=10;" vertex="1" parent="1">
          <mxGeometry x="60" y="620" width="130" height="80" as="geometry"/>
        </mxCell>
        
        <!-- Network Flow Arrows -->
        <mxCell id="arrow1" style="edgeStyle=orthogonalEdgeStyle;rounded=0;orthogonalLoop=1;jettySize=auto;html=1;strokeWidth=3;strokeColor=#232F3E;" edge="1" parent="1" source="internet" target="cloudfront">
          <mxGeometry relative="1" as="geometry"/>
        </mxCell>
        
        <mxCell id="arrow2" style="edgeStyle=orthogonalEdgeStyle;rounded=0;orthogonalLoop=1;jettySize=auto;html=1;strokeWidth=2;strokeColor=#F58534;" edge="1" parent="1" source="cloudfront" target="waf">
          <mxGeometry relative="1" as="geometry"/>
        </mxCell>
        
        <mxCell id="arrow3" style="edgeStyle=orthogonalEdgeStyle;rounded=0;orthogonalLoop=1;jettySize=auto;html=1;strokeWidth=2;strokeColor=#F58534;" edge="1" parent="1" source="waf" target="igw">
          <mxGeometry relative="1" as="geometry"/>
        </mxCell>
        
        <mxCell id="arrow4" style="edgeStyle=orthogonalEdgeStyle;rounded=0;orthogonalLoop=1;jettySize=auto;html=1;strokeWidth=2;strokeColor=#F58534;" edge="1" parent="1" source="igw" target="alb">
          <mxGeometry relative="1" as="geometry"/>
        </mxCell>
        
        <mxCell id="arrow5" style="edgeStyle=orthogonalEdgeStyle;rounded=0;orthogonalLoop=1;jettySize=auto;html=1;strokeWidth=2;strokeColor=#F58534;" edge="1" parent="1" source="alb" target="lambda-a">
          <mxGeometry relative="1" as="geometry"/>
        </mxCell>
        
        <mxCell id="arrow6" style="edgeStyle=orthogonalEdgeStyle;rounded=0;orthogonalLoop=1;jettySize=auto;html=1;strokeWidth=2;strokeColor=#C925D1;" edge="1" parent="1" source="lambda-a" target="redis-a">
          <mxGeometry relative="1" as="geometry"/>
        </mxCell>
        
        <mxCell id="arrow7" style="edgeStyle=orthogonalEdgeStyle;rounded=0;orthogonalLoop=1;jettySize=auto;html=1;strokeWidth=2;strokeColor=#C925D1;" edge="1" parent="1" source="lambda-b" target="dynamodb">
          <mxGeometry relative="1" as="geometry"/>
        </mxCell>
        
        <mxCell id="arrow8" style="edgeStyle=orthogonalEdgeStyle;rounded=0;orthogonalLoop=1;jettySize=auto;html=1;strokeWidth=2;strokeColor=#7AA116;" edge="1" parent="1" source="lambda-c" target="s3">
          <mxGeometry relative="1" as="geometry"/>
        </mxCell>
        
        <mxCell id="arrow9" style="edgeStyle=orthogonalEdgeStyle;rounded=0;orthogonalLoop=1;jettySize=auto;html=1;strokeWidth=2;strokeColor=#7AA116;" edge="1" parent="1" source="lambda-d" target="iot-core">
          <mxGeometry relative="1" as="geometry"/>
        </mxCell>
        
        <!-- Security Labels -->
        <mxCell id="https-label" value="HTTPS/TLS 1.3" style="text;html=1;strokeColor=none;fillColor=none;align=center;verticalAlign=middle;whiteSpace=wrap;rounded=0;fontSize=9;fontColor=#232F3E;fontStyle=2;" vertex="1" parent="1">
          <mxGeometry x="140" y="100" width="70" height="15" as="geometry"/>
        </mxCell>
        
        <mxCell id="waf-label" value="DDoS Protection" style="text;html=1;strokeColor=none;fillColor=none;align=center;verticalAlign=middle;whiteSpace=wrap;rounded=0;fontSize=9;fontColor=#F58534;fontStyle=2;" vertex="1" parent="1">
          <mxGeometry x="310" y="200" width="70" height="15" as="geometry"/>
        </mxCell>
        
        <mxCell id="vpc-label" value="Private Network" style="text;html=1;strokeColor=none;fillColor=none;align=center;verticalAlign=middle;whiteSpace=wrap;rounded=0;fontSize=9;fontColor=#248814;fontStyle=2;" vertex="1" parent="1">
          <mxGeometry x="690" y="120" width="70" height="15" as="geometry"/>
        </mxCell>
        
        <mxCell id="encryption-label" value="Encryption at Rest" style="text;html=1;strokeColor=none;fillColor=none;align=center;verticalAlign=middle;whiteSpace=wrap;rounded=0;fontSize=9;fontColor=#C925D1;fontStyle=2;" vertex="1" parent="1">
          <mxGeometry x="1000" y="120" width="80" height="15" as="geometry"/>
        </mxCell>
        
      </root>
    </mxGraphModel>
  </diagram>
</mxfile>
